<svg width="260" height="260" viewBox="0 0 260 260" fill="none" xmlns="http://www.w3.org/2000/svg">
<path fill-rule="evenodd" clip-rule="evenodd" d="M260 0H0V260H260V0ZM83 132.948C83 110.607 94.5013 105.143 99.4232 105.004C102.321 104.922 105.701 106.083 108.705 109.753C111.804 113.54 115 120.741 115 132.948C115 164.871 136.352 184.874 160.879 185.072C172.651 185.167 184.452 180.539 193.232 171.216C202.077 161.824 207 148.625 207 132.948H177C177 142.27 174.173 147.696 171.393 150.648C168.548 153.669 164.849 155.103 161.121 155.073C154.648 155.021 145 150.024 145 132.948C145 115.654 140.446 101.168 131.92 90.7516C123.299 80.2179 111.179 74.6603 98.5768 75.016C72.4987 75.7521 53 99.7881 53 132.948H83Z" fill="#196AB6"/>
</svg>
